<?xml version="1.0" encoding="UTF-8" standalone="no"?>
<!-- Created with Inkscape (http://www.inkscape.org/) -->

<svg
   xmlns:dc="http://purl.org/dc/elements/1.1/"
   xmlns:cc="http://creativecommons.org/ns#"
   xmlns:rdf="http://www.w3.org/1999/02/22-rdf-syntax-ns#"
   xmlns:svg="http://www.w3.org/2000/svg"
   xmlns="http://www.w3.org/2000/svg"
   xmlns:sodipodi="http://sodipodi.sourceforge.net/DTD/sodipodi-0.dtd"
   xmlns:inkscape="http://www.inkscape.org/namespaces/inkscape"
   width="566"
   height="377"
   viewBox="0 0 149.75416 99.747923"
   version="1.1"
   id="svg974"
   inkscape:version="0.92.3 (2405546, 2018-03-11)"
   sodipodi:docname="banner.svg">
  <defs
     id="defs968" />
  <sodipodi:namedview
     id="base"
     pagecolor="#ffffff"
     bordercolor="#666666"
     borderopacity="1.0"
     inkscape:pageopacity="0.0"
     inkscape:pageshadow="2"
     inkscape:zoom="1.0016969"
     inkscape:cx="294.39274"
     inkscape:cy="188.72875"
     inkscape:document-units="px"
     inkscape:current-layer="layer2"
     showgrid="false"
     inkscape:window-width="1366"
     inkscape:window-height="705"
     inkscape:window-x="-8"
     inkscape:window-y="-8"
     inkscape:window-maximized="1"
     units="px"
     showguides="false" />
  <metadata
     id="metadata971">
    <rdf:RDF>
      <cc:Work
         rdf:about="">
        <dc:format>image/svg+xml</dc:format>
        <dc:type
           rdf:resource="http://purl.org/dc/dcmitype/StillImage" />
        <dc:title />
      </cc:Work>
    </rdf:RDF>
  </metadata>
  <g
     inkscape:groupmode="layer"
     id="layer2"
     inkscape:label="painel"
     style="display:inline"
     transform="translate(0,-197.25206)">
    <rect
       style="opacity:1;fill:#3e3c5f;fill-opacity:1;stroke:none;stroke-width:0.27857918;stroke-linecap:square;stroke-linejoin:round;stroke-miterlimit:4;stroke-dasharray:none;stroke-opacity:1;paint-order:markers stroke fill"
       id="rect31"
       width="149.51601"
       height="99.690788"
       x="0.35999101"
       y="197.35216"
       inkscape:export-filename="E:\Outros\Projetos\Portifólio\Otimização do Código\_imgs\jv-jdk-jre.png"
       inkscape:export-xdpi="137"
       inkscape:export-ydpi="137" />
    <text
       xml:space="preserve"
       style="font-style:normal;font-variant:normal;font-weight:normal;font-stretch:normal;font-size:7.76111126px;line-height:1.25;font-family:'Courier New';-inkscape-font-specification:'Courier New';letter-spacing:0px;word-spacing:0px;fill:#000000;fill-opacity:1;stroke:none;stroke-width:0.26458332"
       x="-10.904055"
       y="139.06708"
       id="text37"><tspan
         sodipodi:role="line"
         id="tspan35"
         x="-10.904055"
         y="145.97275"
         style="font-size:7.76111126px;stroke-width:0.26458332" /></text>
    <text
       xml:space="preserve"
       style="font-style:normal;font-variant:normal;font-weight:normal;font-stretch:normal;font-size:3.88055563px;line-height:1.25;font-family:'Courier New';-inkscape-font-specification:'Courier New';letter-spacing:0px;word-spacing:0px;fill:#f9f9f9;fill-opacity:1;stroke:#ffaaaa;stroke-width:0.26458332;stroke-opacity:0"
       x="98.077194"
       y="235.45308"
       id="text41"
       inkscape:export-filename="E:\Outros\Projetos\Portifólio\Otimização do Código\_imgs\jv-jdk-jre.png"
       inkscape:export-xdpi="137"
       inkscape:export-ydpi="137"><tspan
         sodipodi:role="line"
         id="tspan39"
         x="98.077194"
         y="238.90591"
         style="font-style:normal;font-variant:normal;font-weight:normal;font-stretch:normal;font-size:9.87777805px;font-family:'Franklin Gothic Medium';-inkscape-font-specification:'Franklin Gothic Medium, ';text-align:center;text-anchor:middle;fill:#f9f9f9;stroke:#ffaaaa;stroke-width:0.26458332;stroke-opacity:0" /><tspan
         sodipodi:role="line"
         x="98.077194"
         y="249.3085"
         style="font-style:normal;font-variant:normal;font-weight:normal;font-stretch:normal;font-size:9.87777805px;font-family:'Franklin Gothic Medium';-inkscape-font-specification:'Franklin Gothic Medium, ';text-align:center;text-anchor:middle;fill:#f9f9f9;stroke:#ffaaaa;stroke-width:0.26458332;stroke-opacity:0"
         id="tspan666">JDK E JRE</tspan><tspan
         sodipodi:role="line"
         x="98.077194"
         y="256.10382"
         style="font-style:normal;font-variant:normal;font-weight:normal;font-stretch:normal;font-size:9.87777805px;font-family:'Franklin Gothic Medium';-inkscape-font-specification:'Franklin Gothic Medium, ';text-align:center;text-anchor:middle;fill:#f9f9f9;stroke:#ffaaaa;stroke-width:0.26458332;stroke-opacity:0"
         id="tspan668" /><tspan
         sodipodi:role="line"
         x="98.077194"
         y="260.95453"
         style="font-style:normal;font-variant:normal;font-weight:normal;font-stretch:normal;font-size:9.87777805px;font-family:'Franklin Gothic Medium';-inkscape-font-specification:'Franklin Gothic Medium, ';fill:#f9f9f9;stroke:#ffaaaa;stroke-width:0.26458332;stroke-opacity:0"
         id="tspan32" /><tspan
         sodipodi:role="line"
         x="98.077194"
         y="265.80521"
         style="font-style:normal;font-variant:normal;font-weight:normal;font-stretch:normal;font-size:9.87777805px;font-family:'Franklin Gothic Medium';-inkscape-font-specification:'Franklin Gothic Medium, ';fill:#f9f9f9;stroke:#ffaaaa;stroke-width:0.26458332;stroke-opacity:0"
         id="tspan30" /></text>
  </g>
  <g
     inkscape:label="Java-logo"
     inkscape:groupmode="layer"
     id="layer1"
     transform="translate(0,-197.25206)">
    <path
       style="fill:#fe9e27;fill-opacity:1;stroke:none;stroke-width:0.26458332px;stroke-linecap:butt;stroke-linejoin:miter;stroke-opacity:1"
       d="m 40.375353,237.66223 -2.317623,-2.54081 -1.905601,-2.88417 c -0.319742,-1.22877 -0.218044,-2.20468 0.377687,-2.88416 2.297296,-2.70083 4.561853,-3.76235 6.626684,-5.87132 0.939428,-1.70125 1.418069,-1.48129 1.545083,-3.57086 l -0.06867,-2.23179 c 0.549077,0.67362 2.331959,2.63368 -1.098726,6.97005 -1.866261,2.24179 -4.36684,3.21495 -5.59663,6.7297 0.124924,1.38805 -0.222489,1.00102 1.236065,3.57087 l 1.081558,1.90561 z"
       id="path1796"
       inkscape:connector-curvature="0"
       sodipodi:nodetypes="cccccccccscc"
       inkscape:export-xdpi="137"
       inkscape:export-ydpi="137"
       inkscape:export-filename="E:\Outros\Projetos\Portifólio\Otimização do Código\_imgs\jv-jdk-jre.png" />
    <path
       style="fill:#fe9e27;fill-opacity:1;stroke:none;stroke-width:0.26458332px;stroke-linecap:butt;stroke-linejoin:miter;stroke-opacity:1"
       d="m 42.607137,238.76097 0.515028,-1.71677 c 0.302589,-1.04151 -3.596673,-4.89851 -1.270401,-7.89712 0.769285,-0.73032 2.111704,-1.44214 3.1245,-2.33479 l 3.708197,-1.57942 -0.927049,0.82404 c -1.945659,1.33335 -1.702922,0.8704 -3.633435,2.57811 -0.825473,0.73021 -1.777341,2.27298 -1.012127,3.15706 1.607263,1.85696 2.018538,2.91091 2.036089,3.53535 -0.279195,1.41452 -1.258614,3.24443 -2.540802,3.43354 z"
       id="path1802"
       inkscape:connector-curvature="0"
       sodipodi:nodetypes="ccccccsscc"
       inkscape:export-xdpi="137"
       inkscape:export-ydpi="137"
       inkscape:export-filename="E:\Outros\Projetos\Portifólio\Otimização do Código\_imgs\jv-jdk-jre.png" />
    <path
       style="fill:#6a93ae;fill-opacity:1;stroke:none;stroke-width:0.26458332px;stroke-linecap:butt;stroke-linejoin:miter;stroke-opacity:1"
       d="m 36.479258,237.96505 c -1.895453,0.86969 -6.853004,1.96652 0.02428,2.23364 4.685433,0.2366 7.46891,-0.39242 10.998215,-0.94687 0.4603,0.0535 0.693754,0.085 0.70408,0.26707 -0.929901,0.8916 -2.82971,1.30811 -5.632639,1.55384 -3.165727,0.27722 -6.359612,0.27284 -9.590057,-0.0971 -3.974706,-0.49731 -3.240158,-1.43067 -0.242786,-2.57355 l 2.792042,-0.60697 c 1.139638,-0.0204 1.943495,-0.13335 0.946865,0.16996 z"
       id="path1804"
       inkscape:connector-curvature="0"
       sodipodi:nodetypes="ccccccccc"
       inkscape:export-xdpi="137"
       inkscape:export-ydpi="137"
       inkscape:export-filename="E:\Outros\Projetos\Portifólio\Otimização do Código\_imgs\jv-jdk-jre.png" />
    <path
       style="fill:#6a93ae;fill-opacity:1;stroke:none;stroke-width:0.26458332px;stroke-linecap:butt;stroke-linejoin:miter;stroke-opacity:1"
       d="m 49.851856,238.24593 c 5.022837,0.27827 2.395946,3.86221 1.476411,4.4636 l -1.510746,1.27041 c -0.751663,0.66926 -1.548729,1.36496 0.309016,0.51503 l 3.021493,-1.6481 c 1.781799,-1.40837 2.086523,-2.76909 1.030055,-4.0859 -1.192538,-1.50752 -2.667086,-1.53447 -4.223225,-1.13307 -0.536439,0.33154 -0.811076,0.59762 -0.103004,0.61803 z"
       id="path1806"
       inkscape:connector-curvature="0"
       sodipodi:nodetypes="cccccccc"
       inkscape:export-xdpi="137"
       inkscape:export-ydpi="137"
       inkscape:export-filename="E:\Outros\Projetos\Portifólio\Otimização do Código\_imgs\jv-jdk-jre.png" />
    <path
       style="fill:#6a93ae;fill-opacity:1;stroke:none;stroke-width:0.26458332px;stroke-linecap:butt;stroke-linejoin:miter;stroke-opacity:1"
       d="m 45.703778,242.96332 c 1.745334,0.39438 1.973492,0.76124 1.375711,1.15561 -2.002574,0.55957 -3.690473,1.19406 -8.666984,1.04555 -4.147505,-0.25618 -6.246753,-0.88219 -5.117649,-2.0911 0.531941,-0.6569 1.063883,-0.70819 1.595825,-0.963 l 0.165081,1.29318 c 4.122228,0.59762 7.23337,0.13954 10.648016,-0.44024 z"
       id="path1808"
       inkscape:connector-curvature="0"
       sodipodi:nodetypes="ccccccc"
       inkscape:export-xdpi="137"
       inkscape:export-ydpi="137"
       inkscape:export-filename="E:\Outros\Projetos\Portifólio\Otimização do Código\_imgs\jv-jdk-jre.png" />
    <path
       sodipodi:nodetypes="ccccccc"
       inkscape:connector-curvature="0"
       id="path13"
       d="m 44.781086,246.77757 c 1.745334,0.39438 2.138577,1.14644 1.540796,1.54081 -2.002573,0.55957 -1.874532,1.00146 -6.713473,1.12808 -4.147504,-0.25617 -6.384323,-1.45998 -5.25522,-2.66889 0.597485,-0.71152 1.042486,-0.68577 1.238141,-0.66034 l 0.522766,0.99052 c 4.122228,0.59762 5.252345,0.2496 8.66699,-0.33018 z"
       style="fill:#6a93ae;fill-opacity:1;stroke:none;stroke-width:0.26458332px;stroke-linecap:butt;stroke-linejoin:miter;stroke-opacity:1"
       inkscape:export-xdpi="137"
       inkscape:export-ydpi="137"
       inkscape:export-filename="E:\Outros\Projetos\Portifólio\Otimização do Código\_imgs\jv-jdk-jre.png" />
    <path
       sodipodi:nodetypes="cccccccscc"
       inkscape:connector-curvature="0"
       id="path19"
       d="m 53.022566,249.73186 c 0.397136,0.99969 -3.997098,2.35706 -4.870021,2.47629 -2.002574,0.55957 -10.569032,0.47869 -15.545545,0.33017 -4.147508,-0.25618 -6.246759,-0.88218 -5.117654,-2.09109 0.531942,-0.6569 1.476599,-0.9283 2.008541,-1.18311 2.429582,-0.62532 2.384568,-0.36685 3.576852,-0.55028 -4.072111,1.15559 -3.411771,1.89848 -3.411771,1.89848 2.391288,1.0417 9.310294,1.11254 14.765354,0.94366 5.626916,-0.17419 9.033032,-2.66231 8.594244,-1.82412 z"
       style="fill:#6a93ae;fill-opacity:1;stroke:none;stroke-width:0.26458332px;stroke-linecap:butt;stroke-linejoin:miter;stroke-opacity:1"
       inkscape:export-xdpi="137"
       inkscape:export-ydpi="137"
       inkscape:export-filename="E:\Outros\Projetos\Portifólio\Otimização do Código\_imgs\jv-jdk-jre.png" />
    <path
       style="fill:#6a93ae;fill-opacity:1;stroke:none;stroke-width:0.26458332px;stroke-linecap:butt;stroke-linejoin:miter;stroke-opacity:1"
       d="m 32.598958,254.10592 3.696546,0.50584 2.957237,0.0778 3.85219,-0.15564 4.163478,-0.31129 3.151792,-0.42802 2.451393,-0.70041 2.179017,-1.94554 -2.529217,1.12842 -2.840501,0.81713 c -5.845168,0.75618 -11.558111,1.08925 -16.887381,0.19455 -0.388626,0.0781 -0.814897,0.13366 -0.194554,0.81716 z"
       id="path25"
       inkscape:connector-curvature="0"
       sodipodi:nodetypes="cccccccccccc"
       inkscape:export-xdpi="137"
       inkscape:export-ydpi="137"
       inkscape:export-filename="E:\Outros\Projetos\Portifólio\Otimização do Código\_imgs\jv-jdk-jre.png" />
    <path
       style="fill:#4f7e9e;fill-opacity:1;stroke:none;stroke-width:0.26458332px;stroke-linecap:butt;stroke-linejoin:miter;stroke-opacity:1"
       d="m 28.320523,271.23364 c 1.441419,-2.16212 1.441419,-2.16212 1.441419,-2.16212 l 0.09609,-12.10792 -1.681656,0.048 v 12.05987 l -1.057036,1.53751 z"
       id="path29"
       inkscape:connector-curvature="0"
       inkscape:export-xdpi="137"
       inkscape:export-ydpi="137"
       inkscape:export-filename="E:\Outros\Projetos\Portifólio\Otimização do Código\_imgs\jv-jdk-jre.png" />
    <path
       style="fill:#4f7e9e;fill-opacity:1;stroke:none;stroke-width:0.26458332px;stroke-linecap:butt;stroke-linejoin:miter;stroke-opacity:1"
       d="m 35.217422,259.6901 c -1.313159,-0.0193 -2.766645,0.1273 -3.19722,0.82889 -0.09335,0.42942 -0.342116,0.92822 0.672827,0.86506 1.204467,-0.46157 2.318256,-0.56137 3.266983,0 0.472089,0.80177 0.70844,1.50244 0.288355,1.92185 -2.263078,-0.44672 -3.209833,0.56901 -4.372342,1.34514 -0.131051,0.96226 -0.70757,1.68179 0.480591,3.36362 1.025007,0.4383 2.049738,0.62246 3.074746,0.19172 l 1.009241,-0.91261 0.144177,1.1529 1.489314,-0.0481 -0.08062,-6.86314 c -0.227569,-0.88206 -0.685799,-1.28706 -1.552876,-1.78542 -0.363497,-0.0289 -0.785462,-0.0535 -1.223181,-0.06 z m 1.050065,4.94647 0.01447,1.73375 c -0.482622,0.26121 -0.870871,0.66416 -1.566312,0.60616 -2.220052,0.0311 -1.397481,-1.89565 -0.04806,-2.13786 0.601501,-0.17965 1.068787,-0.16305 1.599902,-0.20205 z"
       id="path31"
       inkscape:export-xdpi="137"
       inkscape:export-ydpi="137"
       inkscape:connector-curvature="0"
       inkscape:export-filename="E:\Outros\Projetos\Portifólio\Otimização do Código\_imgs\jv-jdk-jre.png" />
    <path
       style="fill:#4f7e9e;fill-opacity:1;stroke:none;stroke-width:0.26458332px;stroke-linecap:butt;stroke-linejoin:miter;stroke-opacity:1"
       d="m 39.345523,259.7277 c 1.674124,0.0577 1.770163,0.0623 1.770163,0.0623 l 2.034794,6.4278 1.611804,-6.38437 1.876438,-0.0286 c -0.695645,2.7728 -1.645413,5.96558 -2.626906,8.52951 l -1.991366,0.0143 z"
       id="path35"
       inkscape:connector-curvature="0"
       sodipodi:nodetypes="cccccccc"
       inkscape:export-xdpi="137"
       inkscape:export-ydpi="137"
       inkscape:export-filename="E:\Outros\Projetos\Portifólio\Otimização do Código\_imgs\jv-jdk-jre.png" />
    <path
       style="fill:#4f7e9e;fill-opacity:1;stroke:none;stroke-width:0.26458332px;stroke-linecap:butt;stroke-linejoin:miter;stroke-opacity:1"
       d="m 50.651613,259.59243 c -1.225089,0.004 -2.361725,0.28344 -2.756419,0.92656 -0.09335,0.42942 -0.342115,0.92822 0.672826,0.86506 1.204468,-0.46157 2.318257,-0.56137 3.266984,0 0.472087,0.80177 0.336885,1.29935 -0.0832,1.71876 -2.513617,-0.0133 -4.314987,0.95959 -4.312911,1.57252 -0.406677,0.45775 -0.725589,2.45263 0.480591,3.3631 1.025008,0.4383 2.361864,0.59869 3.386871,0.16795 l 1.009239,-0.91261 0.144179,1.1529 1.489313,-0.0481 -0.258897,-6.85953 c -0.227272,-0.88216 -0.137666,-1.49094 -1.374595,-1.78903 -0.532095,-0.10418 -1.107119,-0.15931 -1.66398,-0.15762 z m 0.275437,5.0152 c 0.435914,-2.2e-4 0.88348,0.0533 1.215428,0.0289 l 0.01447,1.73375 c -0.482622,0.26121 -0.870869,0.66416 -1.566313,0.60616 -2.491696,-0.0303 -1.537827,-2.06125 -0.408245,-2.28152 0.225566,-0.0674 0.483108,-0.0872 0.74466,-0.0873 z"
       id="path37"
       inkscape:export-xdpi="137"
       inkscape:export-ydpi="137"
       inkscape:connector-curvature="0"
       inkscape:export-filename="E:\Outros\Projetos\Portifólio\Otimização do Código\_imgs\jv-jdk-jre.png" />
    <path
       style="fill:#a9c1d1;fill-opacity:1;stroke:none;stroke-width:0.26458332px;stroke-linecap:butt;stroke-linejoin:miter;stroke-opacity:1"
       d="m 54.881509,261.19185 h 0.556987 l -0.01357,-0.89661 0.421137,-0.0136 -0.02717,-0.51624 h -1.344918 l -0.01357,0.59775 0.461891,-0.0136 z"
       id="path41"
       inkscape:connector-curvature="0"
       inkscape:export-xdpi="137"
       inkscape:export-ydpi="137"
       inkscape:export-filename="E:\Outros\Projetos\Portifólio\Otimização do Código\_imgs\jv-jdk-jre.png" />
    <text
       xml:space="preserve"
       style="font-style:normal;font-variant:normal;font-weight:normal;font-stretch:normal;font-size:10.58333302px;line-height:1.25;font-family:'Courier New';-inkscape-font-specification:'Courier New';letter-spacing:0px;word-spacing:0px;fill:#000000;fill-opacity:1;stroke:none;stroke-width:0.26458332"
       x="36.176929"
       y="110.24661"
       id="text47"><tspan
         sodipodi:role="line"
         id="tspan45"
         x="36.176929"
         y="119.66342"
         style="stroke-width:0.26458332" /></text>
    <text
       xml:space="preserve"
       style="font-style:normal;font-variant:normal;font-weight:normal;font-stretch:normal;font-size:3.88055563px;line-height:1.25;font-family:Arial;-inkscape-font-specification:Arial;letter-spacing:0px;word-spacing:0px;fill:#b1c7d4;fill-opacity:1;stroke:none;stroke-width:0.26458332"
       x="56.091965"
       y="261.18555"
       id="text57"
       inkscape:export-xdpi="137"
       inkscape:export-ydpi="137"
       inkscape:export-filename="E:\Outros\Projetos\Portifólio\Otimização do Código\_imgs\jv-jdk-jre.png"><tspan
         sodipodi:role="line"
         id="tspan55"
         x="56.091965"
         y="261.18555"
         style="font-style:normal;font-variant:normal;font-weight:bold;font-stretch:normal;font-size:2.11666656px;font-family:Arial;-inkscape-font-specification:'Arial Bold';fill:#b1c7d4;fill-opacity:1;stroke-width:0.26458332">M</tspan></text>
  </g>
</svg>
